<svg xmlns="http://www.w3.org/2000/svg" viewBox="0 0 500 333"><path fill="#D51313" d="M117.16 83.89q-.65.27-1.37.19-.86-.08-.28-.72.65-.71 1.68-.15.69.37-.03.68zM115.92 84.9c1.39.28 1.35 1.83.15 2.17q-.94.26-.84-.71l.1-1.03q.06-.54.59-.43zM122.68 86q1.15.08 1.86.9.47.55-.17.88l-1.69.9q-.71.37-.69-.43l.03-1.65a.62.62 0 0 1 .66-.6zM198.78 89.77q-1.12-.12-.74-1.38a.48.47-62.9 0 1 .74-.24q.76.57.96 1.51.15.74-.5.35l-.32-.19q-.07-.04-.14-.05z"/><ellipse fill="#D51313" transform="rotate(-13.9 500.056 -1068.429)" rx="1.44" ry=".83"/><path fill="#D51313" d="M117.83 93.76a.51.51 0 0 0 .96.1l.17-.38q.24-.52-.15-.94-1.58-1.67.28-3.13a.44.43-11.8 0 1 .69.45l-.24.92q-.14.54.27.91l3.76 3.36a.83.83 0 0 1-.27 1.39q-4.63 1.74-9.56 1.47a.82.82 0 0 1-.57-1.37l2.62-2.91q.47-.52.1-1.11c-.56-.88-1.05-3.2.34-3.31q.53-.04.66.48l.94 4.07zM124.86 90.05a.57.56 48.7 0 1 .62.05c.69.53-.14 1.35-.57 1.57q-.51.25-.64-.31-.19-.86.59-1.31zM243.06 92.31q-.25.45-.81.41a.45.44 19.9 0 1-.33-.7c.46-.65 2.43-1.32 2.74-.48q.15.42-.3.43-.69.02-1.3.34zM111.52 92.17q.63.38.05.85-1.7 1.37-3.85.85-.54-.13-.28-.61 1.47-2.67 4.08-1.09z"/><path fill="#D51313" d="M500 100.5v5.81l-6.6 3.87a.47.47 0 0 0 .25.87q3.83-.1 6.35 3.01v56.33q-3.78.68-7.56-.49-.57-.17-.42.41c.4 1.64 5.31 1.76 6.77 1.68q.47-.03.78.33l.43.49v14.5q-.33.29-.25.78.09.59-.5.66-.55.07-.97-.23-.44-.3-.97-.26c-1.58.14-.43 2.93-.26 3.88q.15.83-.69.84l-2.6.03q-.15 0-.25.11l-.24.24q-.55.54.22.63c2.01.22 4.93-.23 6.51 2.07v.5q-1.2.53-2.35.22-.3-.09-.38-.39-.1-.4.25-.39 2.23.06-.09-.67-.99-.31-2.01-.12-.89.17-.43.95l.58.98q.3.5-.23.72l-2.39 1.01q-.82.35-.74-.54.13-1.44 1.36-2.23.63-.4 0-.8c-3.28-2.09-4.64.68-7.59.32q-.51-.06-.96.17-2.73 1.32-5.57.2-.94-.37-.96.65-.02 1.23.81 2.06.39.39.94.34c4.06-.32 7.71.94 11.39.95.75 0 5.65-.2 5.78.4q.09.43-.32.57-.67.23-.91.97-.23.72.52.82l2.39.33q.51.07.72.55l.19.43v17.25q-1.74 1.16-3.91.6-.44-.11-.67.27l-.14.24q-.41.68.39.63 2.63-.16 4.33 1.76v4.84q-13.54.49-27.06-.59-.62-.05-1.06.39-1.48 1.45.14 3.28.94 1.06-.31.39l-.72-.39q-.45-.23-.53-.73-.54-3.29-4.45-3.01-11.95.86-26.95-.55-2.08-.19-6.02.94-.47.13-.75-.28c-1.03-1.53-2.33-1.11-3.95-1.11q-10.46.04-20.93.52c-5.97.28-7.36-2.33-12.47 2.71q-.39.38-.93.44l-3.45.38q-.86.1-.58.92l.43 1.24q.15.44-.28.6-.45.19-.83.51-1.4 1.17.45.7.53-.13.95.27.47.46-.18.42c-3.48-.22-7.1.38-10.25.27q-19.93-.68-39.77-2.71-2.56-.27-6.44.26c-3.33.46-5.84-.81-9.41.64a1.08 1.08 0 0 1-1.44-.68q-.59-1.84-2.42-1.51-.63.11-.49.74c.5 2.27-1.97 1.94-3.36 1.57q-.55-.15-1.04.15-2.82 1.72-5.94.82-.65-.19-.83.47l-.2.69q-.21.74-.83.29-1.99-1.45-3.32.46-.26.38-.7.48l-6.12 1.42a.61.61 0 0 1-.65-.93q.79-1.2.21-2.52-.25-.56.25-.89c3.65-2.48 9.62-1.26 14.02-1.37a.95.94-4.4 0 0 .92-1.06c-.27-2.25-6.29-.3-7.74-.32q-11.4-.13-16.47.3-22.9 1.95-45.89 2.16c-7.82.07-17.81-1.17-24.58-4.3-4.58-2.12-7.88-2.63-12.49-3.24-5.15-.67-10.15-2.04-15.5-2.29q-.47-.02-.84.28l-3.24 2.73q-.65.55-.43-.28l.31-1.22q.08-.27.33-.38 1.42-.57 1.5-2.21a.61.6-15.8 0 0-.95-.53q-.92.66-2.01.51-.52-.08-1.02.1l-6.83 2.39q-.44.16-.87-.05c-1.17-.56-4.47-1.94-4.7-.42q-.1.65.56.64l1.44-.01q1.01-.01.15.52-.77.47-1.69.32l-.31.2q-.13.08-.17.21-.14.43.31.52 2.39.46 4.38-.81.48-.3.73.21c1 1.99-5.26 1.66-5.99 1.44q-.38-.11-.49-.49l-.22-.7q-.29-.92-.76-.08c-2.15 3.84-12.07 2.52-16.27 2.8a.76.76 0 0 0-.71.76v.65q0 .63.56.36c2.59-1.27 7.8-.82 12.43-1.07.87-.05 1.44.29 1.26 1.24q-.15.77.62.76.35 0 .55.3.43.62-.31.53c-.47-.06-13-1.83-14.07-.44q-.51.67.33.71l4.36.19q1.36.06.05.45-2.84.83-5.78.79-1.46-.02-.83-1.34l.37-.76q.33-.69-.39-.42l-2.18.83q-1.39.52-1.22-.95.02-.17.08-.33.16-.43.62-.43l1.58.01a.5.5 0 0 0 .3-.89q-1.87-1.45-3.73-.03-.39.3-.87.28-1.62-.06-2.87.95-.46.36-.99.11-2.33-1.12-4.71-.17a.41.41 0 0 0 .2.78q3.76-.45 5.42 3.18a.33.33 0 0 1-.35.47q-3.15-.47-3.2 2.59a.52.52 0 0 1-.91.34l-2.32-2.57q-.32-.35.06-.63 1.66-1.24 3.01.36.66.77.66-.24v-1.04q0-.89-.86-.65-1.86.51-2.1-1.27-.07-.5-.55-.35-17.1 5.44-34.89 7.8-.2.03-.26-.16l-.08-.28q-.2-.62.46-.63 2.1-.04 2.55-1.92.12-.5.53-.81l2.5-1.82q.33-.24.73-.3.6-.08.75-.66.13-.54-.43-.58-2.74-.15-4.93 1.45-.45.33-1.01.33c-1.76.01-2.9-.62-4.63-.38q-8.23 1.12-16.54 1.91c-4.29.4-8.53-1.66-12.89-2.01q-3.68-.3-10.55.87c-1.88.32-14.76 2.58-15.56 1.74q-.41-.43.15-.64 1.66-.64.78-2.48-.37-.78.49-.7 1.88.18 3.05-1.2a.65.65 0 0 0-.61-1.06l-8.38 1.39q-.58.09-.94-.37l-1.47-1.82q-.44-.54-1.1-.31L31 232.85q-1.06.37-.52-.61.26-.49.17-.94-.16-.77-.8-.32-1.75 1.23-2.89-.45-.39-.58-1.05-.35l-1.3.47q-.66.24-.32-.38c1.35-2.47 4.8-2.47 7.34-3.14a.52.52 0 0 0-.09-1.03c-5.47-.45-11.34 1.42-15.57 2.05q-5.21.78-10.37 2.1-.98.25-.17.86l1.29.98q.48.37-.05.67c-2.27 1.27-2.46-2.27-5.11-1.74q-.48.1-.89-.17-.44-.29-.67-.66v-2.5q.63-4.63 0-9.25v-11.25l.43-3.38q.05-.42.04-.86-.01-1.01-.47-1.76v-.75q1.01-1.87 3-.95.48.23.93-.04 1.59-.96 1.83-2.92a.45.44 1.5 0 0-.48-.5l-5.28.41v-.75q.85-.36 1.67-.92.79-.54-.15-.73l-.58-.11q-.56-.11-.64-.68-.3-2.19.68-4.1.23-.46-.09-.86l-.89-1.1v-1.5l.2-5.51a1.38 1.38 0 0 1 1.52-1.32c10.52 1.11 20.98-.48 31.52-1.49q.6-.06.96-.48a.56.56 0 0 0-.47-.92l-32.59 2.15q-.59.04-.8-.51l-.34-.92v-14q.94-.33 1.9 0 .54.19.78-.33c.22-.49-2.35-2-2.68-3.42v-.75q1.36-2.21 4.09-2.19.56.01.77-.51l.44-1.07q.41-1.01.62.06.13.67.08 1.33-.05.54.35.92.44.42 1.12.27.63-.13.3-.69l-.55-.93q-.43-.74.35-1.08 1.75-.78 3.28.24.44.29.91.04 4.23-2.25 9.05-1.49a.52.52 0 0 0 .57-.7l-1.75-4.76a2 1.99-19 0 0-2.49-1.21l-3.16 1.02q-.49.16-.45.68.16 2.19-2.08 2.57-.51.09-.46-.43c.13-1.22-.82-3.74-2.31-2q-.38.45-.09.95l.18.29q.4.68-.37.49-2.28-.56-3.56 1.13-.27.36-.69.53l-3.11 1.25q-.41.17-.67-.19l-.37-.52v-34.75l.48-.25q.35-.18.72-.07 1.99.56 4 .77c2.8.3 5.7-1.06 8.89-.88q1.15.07.19.71l-.77.52q-.35.23-.12.57c.21.31 3.62.2 5.14.17q.22-.01.22-.23v-.3q.02-.46-.44-.52-2.21-.27-1.61-2.17a.75.75 0 0 0-.5-.94Q9.02 112.67 1.53 113q-.41.02-.77-.18-.54-.29-.76-.63V98.38q10.73-.6 21.47-.69c1.17-.02 2.71-.97 3.76.41q.31.4.79.25 4.17-1.29 8.33-.25c4.86 1.21 7.52.29 12.83-.41q1.87-.24 9.14-.14.58.01.78-.53.23-.61.77-.96 1.01-.63.65.5l-.18.57q-.23.71.51.81 3.03.38 5.89-.67.58-.22.93.3 1.59 2.37 4.61 2.42 1.39.02.36-.91l-1.33-1.19a.61.61 0 0 1 .51-1.06l5.32.88q.46.08.77-.28 1.85-2.15 4.56-.89.47.22.87-.1 1.67-1.33 3.51-.54.5.22 1.03.1l3.77-.82q.56-.12 1.07.16 1.84 1.01 2.68-.95.19-.46.67-.59c1.51-.41 10.76-2.3 11.7-.63q.34.61-.36.57-.79-.05-1.13.68-.18.41.23.57l2.88 1.08q1.15.43-.03.77-1.7.5-3.28-.31-.52-.27-.82.24l-.22.36q-.27.46-.79.58c-1.94.46-3.2.92-5.29.44-4.25-.97-7.88 1.42-12.51 0q-1.43-.44-2.33.35a.78.78 0 0 0 .44 1.36c4.56.42 9.73-.82 13.98.25q5.67 1.43 11.58 1.94a.45.44-59.8 0 1 .21.81q-2.7 1.87-5.7.36a.7.7 0 0 0-.83 1.1l2.22 2.37q.6.64.92-.18c1.11-2.87 3.06.78 5.36.54q.65-.06.67-.71l.04-1.05q.02-.6.51-.94l2.65-1.85q.47-.32.93.01c.63.46 2.4 2.1 1.78 2.98q-.34.48-.79.1-1.24-1.03-2.7-.3-.54.26-.65.86-.35 1.99-2 3.05-.48.32-.24.84.45.97 1.27.59.44-.21.92-.07c.73.21 3.94 1.16 4.29.26q.14-.36-.22-.5-2.11-.83-3.49-2.68-.45-.61.3-.62 4.32-.05 8.62-.05c4.3.01 8.5-1.49 13.3-.84q.83.11.41-.61l-.19-.31q-.12-.2-.35-.23-2.44-.33-4.33-1.94-.46-.38-.97-.08-4.06 2.43-8.06 2.2-2.01-.11-3.33.39-.75.28-.65-.51.1-.77-.6-1.22-2.38-1.55.4-.74 1.26.37 2.52.85.47.17.96.1 3.5-.53 6.83-1.57c3.2-1 5.93-.33 9.2-.49a.45.45 0 0 1 .38.72q-.97 1.26-.53 2.73.17.58.78.58h9.09a.85.85 0 0 0 .84-.72l.07-.47q.14-.91-.74-.64l-2.2.65q-.51.15-.76-.32l-.24-.44q-.39-.73.44-.77 10.91-.51 21.78-1.33c4.95-.37 9.9 2.21 14.41-.04a.48.47-58.2 0 0-.21-.9l-2.9-.03a.35.35 0 0 1-.12-.67q4.18-1.56 6.33 1.67a.54.54 0 0 0 .98-.21q.12-.66-.37-1.18-.57-.6.22-.87 1.24-.42 2.52.04a.46.46 0 0 0 .56-.66l-1.38-2.42a.47.47 0 0 1 .5-.69q2.15.42 1.51 2.4-.18.56.39.68l4.66.93q.45.09.89-.05 2.88-.99 5.91-.56.52.07.8-.37l1.08-1.72q.5-.78.81.09l.43 1.18q.31.86.73.05l1-1.96q.22-.43.7-.53l10.42-2.07q.55-.11.64.44.02.14-.01.29-.07.3-.33.45-1.58.94-3.45.73-.64-.07-.52.57.19 1.02 1.17 1.57.65.36-.04.65l-2.69 1.1q-.65.27-.42.93l.55 1.63q.22.64.9.64c1.53-.02 5.27-1.61 6.26-.15q.39.57-.31.64-.8.08-1.28.68-.62.77.38.77l10.61-.03a.44.44 0 0 0 .05-.88c-1.15-.12-8.23-.24-8.41-.56q-.32-.54.31-.54h7.05q.6 0 1.12-.3 2.98-1.68 6.28-1.05.5.09.97-.12 1.22-.56.8-1.61-.16-.4-.01-.82.42-1.24 1.96-.75 1.65.54-.09.56-.77.02-1.28.42-.67.52.1.86c1.45.65 3.1-2.98 3.46-3.99a1.64 1.64 0 0 0-1.54-2.2h-.41q-.5 0-.5.5v1.05q0 .85-.73.41c-2.11-1.29 1.1-3.65 2.74-3.75q.78-.05.23.5l-.26.26q-.33.33-.06.71c.91 1.26 4.7-.12 5.98-.44q1.15-.28.35.59c-1.42 1.56-3.69.67-4.51 1.62q-.77.88.39.71l6.19-.96q.52-.08 1 .15 2.48 1.19 4.93-.11.49-.26.91.08 5.98 4.78 13.67 4.76a.66.66 0 0 0 .32-1.24l-3.83-2.15a.79.79 0 0 1 .29-1.48c3.2-.36 8.52-.72 10.81 1.72 1.16 1.23 2.4 3.94 4.3 3.7q.5-.06.92.2 2.45 1.55 5.32 2.11.56.11 1.07-.16l.53-.28q.46-.25.94-.04 2.38 1.04 4.33.52c3.61-.96 5.46-.3 8.59-.24q13.32.24 26.64.29.5 0 .85-.36c1.72-1.71 7.53-2.23 4.76-.05a.65.65 0 0 0 .17 1.12q2.25.87 4.19-.44.39-.26.85-.2 3.92.54 7.11-1.57.47-.32 1.04-.36 3.19-.21 6.35.31.5.08.98-.07 2-.64 4.11-.38.54.06.95.44 1.24 1.15 2.36-.04.33-.35.81-.33 5.16.24 9.83-1.91.51-.23 1.08-.16 17.75 2.3 30.82 2.18 9.37-.08 15 .85.28.05.26-.24-.01-.17-.01-.31-.01-.37-.38-.45c-6.37-1.28-14.12.4-13.6-8.16q.1-1.67 1.48-.73.55.38.78.9.19.43.64.32l1.49-.37q1.01-.24.73.76l-.75 2.75q-.12.44.24.72c2.44 1.86 8.79 1.64 11.95 1.81q.41.02.74-.22l2.54-1.88q.63-.47.85.28.96 3.22 4.01 3.81 7.31 1.42 15.35.83.5-.03.74-.47 1.15-2.09 3.26-1.58 4.5 1.08 8.2.78c5.6-.46 10.62-.34 16.91-.01q10.15.53 24.82-.1zm-90.59-3.63-.96.25q-.56.15-.15.55l.26.27q.23.23.93.06.36-.08.51-.45.4-.94-.59-.68zM76.5 99.4q-.13.77.63.59 1.08-.25 1.63-1.24a.49.49 0 0 0-.33-.71q-1.63-.3-1.93 1.36zm196.76 2.04a.39.39 0 0 0 .42.55l2.68-.51q.52-.09.18-.5c-1.18-1.42-2.48-1.15-3.28.46zm-82.32.106a.61.61 0 0 0-.573-.645l-3.374-.2a.61.61 0 0 0-.645.573l-.008.12a.61.61 0 0 0 .573.645l3.374.2a.61.61 0 0 0 .645-.573l.008-.12zm12.37 1.394q-.66-1.25-1.84-.83-1.08.37-.03.83l1.82.79q.64.29.51-.41-.08-.41-.46-.38zm-4.37 0q-.35.32-.09.83a.51.51 0 0 0 .68.22q1.37-.69.15-1.84a.38.37 26.3 0 0-.63.21q-.06.35-.11.58zm-10.55.48a.57.56-89 0 0 .74.77l.57-.27a.46.46 0 0 0-.02-.84q-.91-.4-1.29.34zm-26.66.87c-.52-.39-1.24-.51-1.49.21q-.18.5.35.5h.9a.4.39-26.4 0 0 .24-.71zm5.95.26q1.1.52 2.37.04.91-.34-.06-.34h-2.24q-.71 0-.07.3zM103 107.79q0-.14.03-.3.34-1.89-.64.03-.17.35.17.7.42.42-.04.8-.83.68-.26 1.56.32.49.9.44.96-.07.98-1.11.01-.64.63-.44l1.52.5q.69.23.69-.5v-.93q0-.76-.75-.71l-2.99.19q-.23.01-.24-.23zm-6.52 2.11-.27-.34q-.3-.37-.75-.24l-3.04.88q-.07.02-.1.08-.04.12-.07.25-.12.39.29.41c2.19.12 6.56.54 7.17-1.17q.22-.62-.41-.44l-2.45.68q-.22.07-.37-.11zm73.77 12.33v.28q.01.49.5.49h.75q.25 0 .25-.25v-.26q-.01-.49-.5-.49h-.77q-.23 0-.23.23zm1.78 3.77h-4.29a.75.75 0 0 0-.75.77q.03 1.52 1.43 1.72.54.07.94-.29 1.21-1.12 2.99-.67.32.09.48.38l.12.22q.23.44.72.33 3.4-.78 6.9-.43.42.05.8-.14.81-.4.63-1.14-.14-.54-.68-.68l-1.19-.3q-.55-.13-.46-.7l.11-.6q.1-.58-.48-.45c-2.31.53-3.53 1.9-6.07-.1q-.79-.62-.85.39-.04.54.11 1.08.17.61-.46.61zm70.56 2.15c-2.42-.5-5.5-.17-7.4 1.3q-1.11.85.26.61l7.13-1.28a.32.32 0 0 0 .01-.63zm-81.37.97q-.85.96.52.87.26-.02.26-.27v-.31q0-1.18-.78-.29zm10.72 4.27c.2-3.29-7.88-5.4-8.93-3.93q-.35.49.05.95.95 1.09.94 2.51a.99.99 0 0 0 1.41.89l3.7-1.77q.96-.46.89.6-.1 1.45 1.33 1.37.58-.04.61-.62zm5.35-3.69q1.03.83 1.54-.33.26-.62-.37-.41-.24.08-.44 0-3.41-1.45-.73.74zm-19.387 1.378a.69.62 136.1 0 0 .927-.031.69.62 136.1 0 0 .067-.925.69.62 136.1 0 0-.927.031.69.62 136.1 0 0-.067.925zm62.857-.628.11 1.15a.26.26 0 0 0 .29.24l.11-.01a6.55.77-5.6 0 0 6.44-1.41l-.01-.14a6.55.77-5.6 0 0-6.6-.12l-.11.01a.26.26 0 0 0-.23.28zm-59.83 3.13c-.64-.98-3.78-.89-5.19-1.63q-1.46-.76-1.02.83c.48 1.78 4.4 1.49 5.84 1.49a.45.44-17 0 0 .37-.69zm-1.67 2.86q.05-.68-.41-1.13-.58-.57-.85.19l-.67 1.84q-.17.47.33.41.34-.05.55-.31.4-.49.73.05.87 1.39 2.54 1.52.69.05.37-.57-.68-1.3-2.16-1.48-.47-.05-.43-.52zm287.12 1.3c-.41-.07-.98.3-1.09.64q-.21.62.45.62h1.71q.96 0 .35-.74-.24-.3-.5-.36-.17-.04-.92-.16zm42.57 2.51q.55-.7-.34-.7c-7.83.04-15.29-.98-23.19.48a.45.45 0 0 0 .08.89c3.15.01 22.37.7 23.45-.67zm-2.25 2.28q.92.54 2.08.06.82-.34-.07-.34h-1.94q-.55 0-.07.28zm-426.87 2.9c-.97.13-8.9-.05-7.78 2.87q.18.46.64.62 1.85.64 2.55.5 8.02-1.64 16.24-2.48a.83.83 0 0 0 .75-.83c.01-2.13-10.88-.87-12.4-.68zm244.31 3.49q-.32.49.05 1.03.35.53.74.01.41-.55-.25-1.11-.32-.27-.54.07zM83.9 153.53l.26.25q.32.33.75.18l3.47-1.23q.56-.19.71-.76.2-.7-.2-1.38-.32-.55-.87-.23l-4 2.3q-.63.36-.12.87zm-73.12 1.93q.38-.96-.58-.61l-.65.24a.45.45 0 0 0-.02.83q.93.37 1.25-.46zM5.79 162a.41.41 0 0 0-.09-.75l-1.19-.3a.45.45 0 0 0-.45.73q.74.86 1.73.32zm182.72 2.15q-1.72-1.04-3.73-1.18-.81-.06-.58.73.38 1.28-.54 2.01-.42.34-.97.31-1.27-.08-1.86.97a.57.57 0 0 0 .72.8c1.47-.62 6.28-1.6 7.13-2.68a.65.65 0 0 0-.17-.96zm292.26 4.5q.88 1.78 2.88 1.39a.42.42 0 0 0 .2-.73l-1.56-1.38q-.48-.41.09-.69.99-.5 2.13-.14.11.03.15-.08.06-.18.12-.35.18-.51-.34-.64-3.53-.88-7.1-.47-.45.05-.9-.05l-2.48-.57q-.51-.12-.66.38-.06.24-.06.5.01.54.53.67l6.36 1.65q.44.11.64.51zm-302.22-1.81-1.13.16a.46.46 0 0 0-.21.83q1.31.97 1.81-.41.25-.68-.47-.58zm311.498 2.867a2.46.66 2.5 0 0-2.43-.766 2.46.66 2.5 0 0-2.486.552 2.46.66 2.5 0 0 2.43.766 2.46.66 2.5 0 0 2.486-.552zM161.21 170.76l.24 2.23a.27.27 0 0 0 .3.24l.16-.02a11.26 1.31-6 0 0 11.07-2.48l-.02-.16a11.26 1.31-6 0 0-11.34-.13l-.16.02a.27.27 0 0 0-.25.3zm-2.76 2q1.34.65 1.64-.85a.78.78 0 0 0-1.11-.86l-.53.25a.81.81 0 0 0 0 1.46zm-123.1 3.31a.48.48 0 0 0 .17.93h3.76q.61 0 .48-.6c-.44-2.01-2.84-.92-4.41-.33zm381.75 25.05v-.31q0-.51.51-.56c3.1-.34 8.37.23 9.57-.8a.68.68 0 0 0-.34-1.19c-3.07-.47-14.32-2.7-16.44-1q-.85.68.23.84l1.72.26q.13.02.15.15.02.15-.1.23-4.08 2.63-6.81-.62-.37-.43-.07-.91.52-.82-.51-1.36-1.19-.62-1.61.65-.69 2.05 1.06 2.87.74.35-.05.52l-4.66 1.01q-.6.12-1.03-.31l-1.24-1.24q-.38-.38-.91-.29l-15.11 2.49a.66.66 0 0 0 0 1.3c5.24.85 9.58-.89 16.04.26q.51.09 1-.1c2.25-.9 4.11-.13 5.8-.1q12.29.24 24.59.26.47.01.71-.4l.16-.25q.26-.44-.25-.45l-11.71-.23q-.7-.02-.7-.72zm-387.31-3.28q-1.66.46-3.03-.34-.36-.21-.75-.11l-12.83 3.27q-.43.11-.43.55v.37a.47.47 0 0 0 .56.46l13.76-2.57q.44-.08.82.17c.96.62 2.59.24 2.84-.9a.76.76 0 0 0-.94-.9zm443.2 2.14h4.48a.26.26 0 0 0 .26-.26v-.37a2.33 1.57 0 0 0-2.33-1.57h-.34a2.33 1.57 0 0 0-2.33 1.57v.37a.26.26 0 0 0 .26.26zm-17.69-.65c-.48.77 1.18.83 1.77.12a.71.71 0 0 0-.36-1.14q-.9-.24-1.22.69-.01.04-.19.33zm-9.943 1.876a.64.51 105.7 0 0 .664-.478.64.51 105.7 0 0-.318-.754.64.51 105.7 0 0-.664.478.64.51 105.7 0 0 .318.754zm-352.495 1.642a.82.82 0 0 0-.764-.873l-17.86-1.186a.82.82 0 0 0-.873.764l-.007.1a.82.82 0 0 0 .764.872l17.86 1.186a.82.82 0 0 0 .873-.764l.007-.1zm392.488-.458a.42.41 19.7 0 0 .26.54q1.33.43 2.31-.44a.83.83 0 0 0-.46-1.44q-1.56-.18-2.11 1.34zm-474.82-.36c-.58-.12-.93-.43-1.24.43a.38.38 0 0 0 .34.51l.86.04q.26.01.26-.25v-.46q0-.23-.22-.27zm83.69 1.13a.44.43-69.4 0 0 .32.72l.86-.01a.47.47 0 0 0 .32-.81q-.78-.73-1.5.1zM16.61 205c-1.21-.25-2.21-.6-3.27.21q-1 .77.26.78l3.15.02q.29 0 .28-.29-.01-.15-.02-.27-.04-.37-.4-.45zm5.22.48-.16-.47q-.46-1.37-1.07-.06-.71 1.5 1.01.97.33-.11.22-.44zM8 205.73q.03.26.27.39.62.33.71-.36.18-1.42-.86-.39-.15.15-.12.36zm383.67 23.33a.5.5 0 0 0-.4.85q.69.69 1.45.16a.51.51 0 0 0-.24-.93l-.81-.08zm-76.23 4.13q-.27.2-.09.52a.68.68 0 0 0 .87.3q1.07-.46.73-1.64a.55.55 0 0 0-.88-.27q-.64.54-.63 1.09zM75.42 235.1l2.99.66a.24.24 0 0 0 .28-.18l.03-.11a1.37 1.29 12.5 0 0-1.06-1.55l-.78-.18a1.37 1.29 12.5 0 0-1.62.97l-.02.1a.24.24 0 0 0 .18.29zm6.94.73q-.3-.37-.69-.46-1.71-.4-.43.66.93.76 2.13.98.38.07.38-.31v-.31q0-.42-.42-.42h-.67q-.18 0-.3-.14z"/><path fill="#D51313" d="m450.64 96.22-.98-.4q-.58-.24-.26-.77c.91-1.53 3.42-.96 3.33 1.15q-.02.57-.58.68-1 .19-1.14 1.28-.07.54-.63.52c-.92-.05-.05-1.39.36-1.71q.6-.46-.1-.75zM221.75 95.78l2.2-.33a.79.79 0 0 1 .79 1.21q-2.13 3.39-6.27 2.14-.88-.26-.35-1.01l1.19-1.67q.27-.38.68-.62.82-.49 1.09-.04.23.39.67.32z"/><ellipse fill="#D51313" transform="rotate(121.3 184.1 166.767)" rx=".93" ry=".65"/><path fill="#D51313" d="m286.8 99.55.45-.33a.51.5 80.7 0 1 .78.56l-.17.53a.59.58-79.5 0 1-.58.41q-.72-.03-.78-.47-.06-.44.3-.7z"/><ellipse fill="#D51313" transform="rotate(1.2 -4713.76 8309.632)" rx="1.8" ry=".52"/><path fill="#D51313" d="M224.19 100.69q0-.15.08-.3.22-.36.49-.04.53.64.03 1.26a.45.45 0 0 1-.78-.13q-.14-.38.18-.79zM147.44 101.81q-3.4-.48-5.26 1.86-.6.76-.86-.17l-.42-1.5q-.24-.84.63-.85l7.14-.15a.37.37 0 0 1 .17.7q-.95.47-1.4.11zM8.44 151.53l.35-.95q.17-.46.64-.31l.47.15a.44.44 0 0 1 .06.82l-1.2.58a.23.23 0 0 1-.32-.29zM0 155.44v-.5q.61-1.44 2.04-.81.5.23.14.64-.83.94-2.18.67zM500 190.56v1q-.34.17-.25.66.07.43-.36.49l-.3.04q-.47.06-.5-.41-.12-1.85 1.41-1.78zM22 229.25q.58-.13.94.32.32.4-.2.43-.6.04-1.18-.05-1.63-.25.44-.7zM443.13 233.01c-1.05-2.39 2.16-3.07 3.75-2.04q.47.31.86-.09l.31-.31q.85-.85.52.31l-.81 2.75q-.14.48-.64.41l-1.25-.19q-.5-.07-.62-.57-.17-.68-.72-1.05-.71-.46-.97.34l-.14.42q-.13.39-.29.02zM8.29 231.37c.07-1.25 2.91.78.54.61q-.57-.04-.54-.61zM211.68 231.13l1.48.15q.41.04.26.42c-.22.54-1.74.32-2.03.06a.37.37 0 0 1 .29-.63zM433.08 231.26a.63.63 0 0 1 .72.94q-1.19 1.81-3.19.97a.6.6 0 0 1 .05-1.13l2.42-.78zM170.56 232.58l2.84-.64q.95-.22.37.57l-.18.25q-.31.43-.84.39-2.06-.17-2.02 1.33.02 1.12-.69.26l-1.56-1.88q-.38-.46.2-.59.49-.11.85.12.48.31 1.03.19z"/><ellipse fill="#D51313" transform="rotate(38.4 -137.669 685.728)" rx="1.01" ry=".7"/><path fill="#D51313" d="M429.08 237.86q-.25.75-1.23.97-.41.09-.59-.29l-.11-.24q-.24-.5-.04-1.01.66-1.64.1-3.3a.75.75 0 0 1 1.08-.89c.69.39 4.58 3.48 3.59 4.5q-.47.47-.91-.02-.44-.5-1.25-.31-.49.11-.64.59zM442.69 233.85a.23.22-63.5 0 1 .32-.11c1.42.79 1.06 3.28-.71 1.62a.3.3 0 0 1-.08-.34l.47-1.17z"/><ellipse fill="#D51313" transform="rotate(-30.7 665.102 -742.166)" rx="2.08" ry="1.21"/><path fill="#D51313" d="M286.11 236.46q2.95-1.48 6.29-1.12a.52.51-82.5 0 1 .45.59c-.4 2.7-4.65 2.21-6.5 1.95a.76.75 35.5 0 1-.24-1.42zM41.18 238.75a.19.19 0 0 1 .08.23q-.43 1.03-1.66.73-.65-.16-.55-.83l.05-.34q.13-.84.88-.44l1.2.65zM295.94 239.57q.75.26.12.75-.59.47-1.32.43-.49-.02-.49-.51v-.59q0-.67.63-.45l1.06.37zM140.24 240.76c.55.07 1.52.5 1.79.93q.39.62-.31.39l-1.65-.54a.4.4 0 0 1 .17-.78zM94.52 243.17q1 .18.08.61c-.85.41-4.65 1.39-5.28.13q-.22-.42.24-.54 2.47-.64 4.96-.2zM137.48 246.24l.38.05a.38.38 0 0 1 .29.55c-1.97 3.92-2.21-1.52-1.53-2.88q.25-.48.62-.08.11.11.26.12 2.52.08.53.79-.85.31-.79 1.2.02.22.24.25z"/></svg>