<svg xmlns="http://www.w3.org/2000/svg" viewBox="0 0 499 500"><path fill="#D51313" d="M0 0h5.06Q7.9.93 9.2 2.04c11.3 9.65 22.89 20.34 35.69 27.89a.53.51-35.3 0 0 .39.06q1.19-.25.1-1.11Q29.47 16.21 14 2.86a.33.33 0 0 1 .32-.57c3.17.98 6.5 1.4 9.13 3.65q7.18 6.15 21.51 16.59c3.52 2.56 6.83 3.44 10.41 5.5a1.87 1.86-69.6 0 0 2.76-1.27q.42-2.27-2.05-4.61Q44.58 11.29 32.93.59q-.19-.18.06-.25.13-.04.28-.11.35-.15.63.11 11.04 10.27 23.69 18.47a.36.36 0 0 0 .52-.46l-1.64-3.46q-.21-.47-.14-.97.66-4.85-2.86-8.12-.43-.4.1-.66c1.71-.84 8.18 4.41 9.78 5.62a.41.41 0 0 0 .65-.26q.21-1.26-.95-1.52-.53-.12-.78-.61l-1.26-2.39q-.13-.24.06-.43l.24-.24q.35-.34.68.02 1.67 1.86 4.05 2.5 1.15.31.54-.71-.5-.83-1.26-1.38-.37-.26.05-.45c1.87-.85 32.68 30.33 36.23 28.79a.96.96 0 0 0 .26-1.58c-1.05-.96-7.17-5.31-5.74-6.56q.79-.68-.24-.82l-1.2-.17q-.67-.09-.19-.57l.22-.22q.48-.48.92.04 1.8 2.19 4.58 2.33.53.03.96.35l6.81 5.13a.49.49 0 0 0 .76-.23c.52-1.54-6.55-5.33-7.2-8.14q-.11-.48.37-.38.34.06.47.41.19.54.72.31c1.06-.47-.23-1.77-.65-2.17q-.39-.38.06-.69c2.01-1.41 13.31 9.33 15.89 10.61q.58.29.75-.34.26-1-.71-1.83-8.59-7.33-17.28-14.68a.43.43 0 0 1 .49-.7l5.61 3.27q.35.2.26-.2c-.17-.78-2.68-2.74-3.34-3.65a.34.33-84.9 0 1 .51-.43q2.29 2.42 4.36 3.97c5.72 4.3 9.78 10.46 15.94 14.13q.91.55 1.47 1.05 10.15 9.26 20.78 17.97c1.97 1.62 3.18 3.24 4.66 5.22a.97.96-58.6 0 0 1.72-.42q.45-2.68 3.41-2 .54.12.91.53 2.66 2.98 6.1 5.01.47.28.82-.14c.87-1.04-3.4-4.21-4.41-4.98-3.49-2.66-6.2-5.84-9.55-8.61-15.83-13.05-31.5-25.72-47.35-39.37a.96.95-60.8 0 1-.28-1.01q.24-.77.8-.32c13.87 11.24 27.49 21.08 41.07 34.24 3.83 3.72 8.05 6.99 12.15 10.48a.62.61.2 0 0 .87-.86l-2.85-3.37q-.11-.13-.03-.27l.13-.22q.17-.28.47-.17 1.69.58 2.4 1.21 5.92 5.31 13.97 4.68.53-.04.5-.57-.06-1.22-1.24-1.72-.49-.2-.86-.59c-1.39-1.48-6.65-4.88-7.18-6.01q-.21-.45.24-.24c18.37 8.64 32.85 23.6 47.77 37.12 10.52 9.52 20.95 20.85 32.24 30.6 2.38 2.05 3.85 3.62 6.69 1.93a1.05 1.04 50.6 0 0 .16-1.67q-7.63-6.87-12.91-15.52-2.56-4.17-4.83-6.65-22.42-24.49-49.51-43.8-.43-.3-.61-.8-2.12-5.71-7.66-8.48-.41-.2-.63-.59c-1.25-2.2-1.09-5.76-3.22-7.13q-3.96-2.56-6.92-6.03a.46.46 0 0 1 .61-.68l14.41 9.87a.41.4 88.6 0 0 .55-.58c-2-2.59-5.34-4.7-7.08-6.24q-3.64-3.21-7.29-6.39Q156.69 8.1 148.25 0h60.81c2.31 1.89 19.19 16.44 20.49 15.98q.67-.23.47-.91l-.38-1.28q-.13-.46.27-.73c.98-.66 2.9 1.15 3.96 2.21q.38.38.9.24 2.93-.82 5.27 1.11a.68.68 0 0 0 .95-.97l-5.22-6.09q-.84-.98.28-.35 1.97 1.1 3.99.32.46-.18.89.09l3.88 2.39q.55.34.92-.2c1.06-1.55-.63-3.73-1.38-5.19q-.43-.82.48-.65 2.1.39 2.25-1.56.04-.51-.34-.87-1.62-1.52-1.43-3.54h1q3.61 4.37 8.06 7.91c2.23 1.77 5.4.75 8.26 1.82q.42.16.71.52.38.49 1.03.52 1.05.05.29-.69L255.11.79q-.14-.14 0-.28l.2-.19q.19-.2.4-.02c2.45 2.16 5.23 3.84 7.41 6.2q13.95 15.12 29.85 28.18c1.42 1.17 1.95 2.97 3.27 4.2 9.14 8.49 17.63 15.32 27.58 25.2 1.04 1.03 2.57 1.67 3.87 2.29a.43.43 0 0 0 .48-.69q-14.21-13.66-28.53-25.63c-1.2-1.01-3.19-1.54-4.27-3.47a.25.25 0 0 1 .3-.36c14.06 4.83 25.96 16.29 37.02 25.86 1.8 1.56 4.34 2.77 6.22 4.78q.13.14.32.14h.58q.23 0 .09-.19-9.7-12.93-21.28-24.12c-7.75-7.49-18.02-14.58-27.11-21.81q-6.07-4.82-13.77-10.43Q270.76 5.37 263.97 0h70.84c3.26.43 8.87-.88 10.97 2.21q.53.79 1.53.75 1.23-.04.36-.91L346.31.68q-.26-.26.08-.4c.47-.21 8.43 8.4 9.47 9.29 10.88 9.33 22.52 19 34.88 26.29a.42.42 0 0 0 .52-.65c-3.82-4.08-8.42-9.67-13.27-12.4-2.7-1.52-5.56-4.68-7.05-5.87-4.65-3.72-8.95-7.29-13.98-10.96Q353.6 3.53 351.19 0h4.87q19.41 16.24 40.29 30.56.46.32.68-.19c.84-1.92-1.14-3.92-2.61-5.4q-.35-.35-.04-.73c.33-.4.78-.26 1.16.04q10.27 7.98 20.67 15.85c1.54 1.16 2.96 1.16 3.26-1.08q.12-.84.74-.26l4.42 4.16q.67.63-.24.76l-.43.06q-.46.06-.43.52.07 1.62 1.54 1.67c2.42.08 2.38.5 3.95 1.67 13.19 9.95 24.84 23.41 39.64 34.37 4.52 3.34 7.6 8.01 12.04 11.59q7.88 6.37 15.87 12.59 1.28 1 2.43 2.88v214.58q-16.9-15.2-29.59-28.8c-26.41-28.29-52.64-52.72-79.83-78.35-5.01-4.72-10.74-9.57-16.06-14.46q-.21-.19-.23.09l-.03.34q-.03.37.23.64 20.06 21.09 39.92 42.37c12.75 13.66 26.36 26.68 39.37 40.2 5.17 5.38 11.93 10.78 17.51 16.65 6.3 6.61 10.83 11.23 16.4 16.73q.16.15.09.36-.05.15-.1.29-.09.28-.29.08-12.35-12.25-24.76-24.4-2.08-2.04-6.08-1.87-.52.03-.87-.35c-31.77-33.31-64.61-65.87-95.42-100.07-21.98-24.4-45.22-46.78-71.03-67.28a.61.6-70.9 0 0-.98.48v.44q0 .83-.55.22c-9.34-10.4-20.08-19.97-32-27.35q-.26-.16-.36.13-.05.15-.1.29-.08.27.13.45c1.2 1.09 2.54 2.02 3.52 3.3 5.75 7.52 13.1 12.59 18.92 19.32 5.63 6.52 14.04 11.71 20.64 17.45q.42.36.95.23l1.09-.28q.46-.11.78.23l3.28 3.53q.48.51-.02 1-2.54 2.48-.2 5.05.37.41.84.12l.47-.28q.23-.14.14-.4-.46-1.39-1.53-2.24-1.4-1.11.36-.8 2.62.45 4.05 2.71.36.56-.31.58l-1.69.03q-1.01.02-.44.86l3.24 4.79q.27.41.75.3l.51-.12q.89-.2.39-.96-.86-1.3-1.13-2.78-.21-1.13.65-.36c12.17 11 23.32 23.86 34.26 34.74q29.09 28.89 56.87 59.05c3.76 4.08 8.91 8.92 13.09 13.7 1.94 2.21 5.8 5.58 7.97 9.23q.62 1.03-.4.39-3.08-1.96-5.77-4.47-.39-.37-.92-.45c-3.67-.55-1.97-4.88-4.91-4.83q-.64.01-.4.6.54 1.31.05 2.71-.25.71.46.97l2.08.75q.53.19.9.61 2.08 2.39 4.2 4.76c1.85 2.07 2.43 4.9 4.77 6.97q.41.37.9.12c3.95-2.01 6.21 6.6 7.79 8.53q6.46 7.89 13.87 14.93 22.24 21.12 43.84 42.9c3.4 3.44 7.96 6.04 10.72 11.35v1.75q-.49 1.87-1.99 1.7-.51-.06-.74-.51c-2.52-5-10.4-3.15-6.44 1.19q3.33 3.64 9.17 8.62v17.5c-10.72-9.32-21.1-18.84-33.06-27.55a.75.75 0 0 0-1.16.82q.47 1.59 1.96 3.19 14.25 15.36 29.02 30.22 1.78 1.79 3.24 3.82v19.75l-.58-.07q-.49-.06-.79-.45c-3.62-4.65-11.83-16.07-16.88-18.39q-.36-.17-.64.12l-.2.2q-.31.3-.05.65c4.56 6.22 8.18 13.22 13 19.01q3.07 3.68 6.14 7.32v1.61c-.58-.06-13.1-11.3-14.04-12.25q-10.64-10.91-21.55-21.56-.03-.02-.05.01-.08.1-.23.21-.27.22-.04.48 4.84 5.51 9.82 10.89c2.77 2.99 5.18 6.69 8 9.93 2.79 3.2 3.73 7.23 5.75 10.31q4.2 6.42 12.34 15.98v8.5q-1.06 6.87 0 13.75v3.5q-1.6.2-2.69-1.13c-2.03-2.47-23.1-27.66-25.1-25.18a.5.5 0 0 0-.03.58q3.31 5.14 7.26 9.73c4.16 4.84 9.4 12.8 14.62 19.97q3.7 5.08 5.94 11.03V500h-25.31q-14.21-17.14-28.44-34.24-4.14-4.98-9.17-7.58c-.91-.47-2.25-1.8-2.89-2.54q-33.32-38.46-66.95-76.65-12.32-13.99-19.56-21.42-55.07-56.51-109.12-114-7.16-7.6-13.87-14.41c-24.47-24.81-38.83-39.74-59.18-57.42-25.91-22.51-54.19-46.37-83.43-69.62-17.2-13.68-33.68-28.2-50.88-41.84Q14.75 48.04 0 34.98V0zm422.65 42.12q-.87-1.2-2.24-.89-.83.18-.4.91.76 1.27 2.37.8a.53.52 63.7 0 0 .27-.82zm-127.4 102.13a.47.46-78.6 0 0 .43-.29q.36-.96-.54-1.28a.66.66 0 0 0-.87.52q-.16 1.04.98 1.05zm4.15-.39q-2.03-1.6-.78.66.42.75.52 1.87.06.61.68.61h.64q.75 0 .54-.72-.41-1.48-1.6-2.42zm19.03 21.93q.12.29.45.04a.41.4 67.1 0 0 .16-.41q-.36-1.91-2.2-2.46-1.09-.33-.59.69.62 1.29 1.9 1.86.19.09.28.28zm5.6 4.6a.75.73 62.9 0 0-.71-.24c-4.02.88 2.53 5.41 3.84 5.68a.73.73 0 0 0 .68-1.2l-3.81-4.24zm32.4 33.93c-2.29-.68-.31 2.71.52 3.16q1.71.92.5-.6-.61-.76-.52-1.82.06-.58-.5-.74zm11.04 25.96.72-.2q.52-.15.82.3c.82 1.2 2.58 3.49 3.62 1.55q.27-.5-.11-.93-1.16-1.33-2.85-1.14-.55.06-.6-.48c-.18-1.91-3.03-1.56-4.43-1.27q-.55.11-.63.66-.21 1.39.92 2.27.42.32.62.81c.5 1.17 1.24 3.35 2.21 2.85q.57-.29.36-.89l-.98-2.91q-.16-.48.33-.62zm19.26 4.92-1.25 1.3a.54.54 0 0 0 .01.76l5.65 5.44a2.3 1.41 43.9 0 0 2.64.57l.04-.04a2.3 1.41 43.9 0 0-.68-2.61l-5.65-5.44a.54.54 0 0 0-.76.02zm101.92 116.03 3.97-1.2q.13-.04.13-.18v-.36q-.01-.52-.53-.49c-1.38.05-6.8.24-4.58-3q.3-.42.04-.87c-1.24-2.2-3.88.34-5.11 1.19a.69.68-61.1 0 0 .36 1.25c5.31.19 1.54 5.16 4.13 5.41q.63.06.83-.55l.25-.71q.13-.38.51-.49zM374.52 0h.79l.74.79q.49.54-.2.76-1.7.54-1.33-1.55zM397.31 0h77.87q10.77 12.11 23.23 22.58 1.25 1.04-.35.74-.2-.04-.41-.07-.67-.08-.55.58l1.9 11.23v68.5l-.31.11q-.37.12-.64-.16c-17.35-18.09-35.62-35.49-53.67-52.89-1.32-1.27-2.31-3.1-3.62-4.4-15.08-14.97-29.62-27.62-44.81-44.99q-.37-.43.05-.8.53-.46 1.31-.43z"/><path fill="#D51313" d="M21.17 1.53q-.74-.21-.99-.92-.21-.61.41-.42.66.2.97.9.29.64-.39.44zM383.94 8.31q-.67-.09-.71-.73-.05-.77.53-.26l2.08 1.85q1.01.9-.26.43-1.09-.4-1.64-1.29zM390.67 12.33q.72.49.13 1.03-.5.46-.75-.17-.16-.41.09-.76.22-.3.53-.1z"/><ellipse fill="#D51313" transform="rotate(37.1 170.945 600.867)" rx="3.43" ry=".59"/><rect fill="#D51313" x="-8.6" y="-.47" transform="rotate(40.7 164.51 571.004)" width="17.2" height=".94" rx=".27"/><path fill="#D51313" d="M423.47 270.19q.05-.31.27-.09l1.75 1.79q.93.95-.4.94-2.08-.02-1.62-2.64z"/></svg>