<svg xmlns="http://www.w3.org/2000/svg" viewBox="0 0 587 425"><ellipse fill="#D51313" transform="rotate(-.8 6451.563 -34756.114)" rx="7.64" ry=".7"/><path fill="#D51313" d="M458.65 91.11c2.36-2.88 19.9-2.24 21.35-2.25q.69 0 .49.66l-.08.26q-.06.2-.27.21c-4.78.13-8.36.26-13.69 1.29q-3.56.69-7.43.62-1-.01-.37-.79zM447.42 92.96q2.15.34 4-.65.44-.24.93-.26l5.23-.18a.38.38 0 0 1 .14.74c-5.55 2.02-11.13 1.98-16.81 3.29q-6.57 1.52-13.4 1.02-.33-.03-.29-.35c.03-.26.17-.35.43-.36q5.15-.23 9.85-2.58a.36.36 0 0 0-.18-.68c-3.17.18-6.1 1.5-9.32 1.1q-1.28-.16-.04-.51 7.47-2.14 15.1-.77c.92.16 1.65-.04 2.02-.89q.19-.44.67-.5 3.04-.41 5.95-1.41.44-.15.78.18l.21.21q.21.21-.07.3l-5.24 1.63a.35.34-48.9 0 0 .04.67zM87.5 312q.61-.83 1.86-1.88 21.38-17.85 45.52-30.37.44-.23.53-.73c.47-2.75 20.07-13.51 22.69-12.61q.44.14.87-.02 3.98-1.52 6.99-4.53.36-.36.87-.36h.36q.41 0 .74-.24l3.6-2.57q.32-.23.04-.5l-.19-.19q-.09-.09-.2-.04c-2.51 1.05-4.64 2.51-7.25 3.47-1.74.63-7.44 4.18-9.07 3.11q-.42-.28-.68.15l-.42.69q-.29.49-.86.5-2.38.05-4.12 1.61-.62.55-.37-.24c.46-1.51 4.9-3.42 6.35-4.16 2.37-1.21 3.59-3.45 6.49-4.29 1.03-.3 1.54-1.3-.22-1.55a.61.57 34.3 0 0-.32.05l-17.21 8.22q-.32.16-.14.47l.15.25q.26.44-.25.5-1.32.14-1.98-.91-.37-.6.3-.81 4.25-1.32 7.71-3.9c2.95-2.2 5.65-3.38 8.55-5.18a.43.43 0 0 0-.4-.76c-3.77 1.61-6.74 3.92-10.61 5.36-4.2 1.56-7.97 4.34-11.62 5.99q-10.19 4.6-19.83 10.25-.46.27-.41-.26c.18-1.7 44.34-24.13 49.39-27.99q.39-.29.88-.31 1.76-.08 2.84-1.43.33-.43.87-.51c2.77-.45 4.42-3.14 6.81-3.33q2.56-.21 3.35-1.84.23-.49.71-.74l1.7-.92q.47-.25.81.15.52.6 1.41.25 1.1-.43-.03-.79l-2.42-.77q-.52-.17-.97.15c-3.75 2.69-7.47 2.87-11.43 4.75-1.27.6-4.14 2.09-5.5 1.48q-.65-.29 0-.59 5.39-2.51 10.45-5.57c2.18-1.31 4.76-1.75 7.09-3.08q7.19-4.12 14.65-7.7.29-.14.19-.44-.06-.15-.11-.31-.07-.22-.28-.13c-.94.4-5.23 2.8-5.82 1.86q-.23-.36.15-.57c1.53-.83 3.4-2.65 5.27-2.1 3.52 1.05 6.34.95 8.41-2.47q.27-.44.79-.5c5.55-.58 11.41-4.01 16.09-6.95 1.27-.8 2.86-1.01 4.19-1.92q.48-.33.21-.85c-.58-1.15-7.09 1.87-8.19 2.39a.43.42-71.7 0 1-.38-.76l6.86-3.72q.36-.2.25-.59c-.5-1.88-10.92 2.14-12.34 2.76q-.46.2-.94.07l-1.07-.28q-.68-.18-.46.49l.19.57q.21.61-.38.86l-17.37 7.57q-.73.31-.39-.41l.33-.71a.62.62 0 0 0-.83-.82l-20.39 9.79q-.48.23-.55-.3c-.63-5.08-28.1 12.82-29.76 10.62a.53.53 0 0 1 .25-.82c2.91-1.01 4.37-2.65 7.53-3.12q.5-.08.92-.37 7.89-5.48 16.76-9.25a.55.54 47.6 0 0 .04-.98q-1.23-.68-2.08.46-.3.41-.79.56-5.36 1.68-10.62 3.67c-.97.36-2.64 1.91-3.46 1.72q-.52-.11-.27-.58.52-.99 1.63-.93.43.02.57-.4.05-.17.01-.39a.48.47 72.7 0 0-.67-.36q-14.18 6.51-27.64 14.26c-3.21 1.84-7.2 2.52-10.51 5.16-.3.23-.47.37-.75.05q-.22-.24.05-.42l12.3-8.24q.43-.29.93-.12c2.41.87 3.27-1.11 3.68-3.11q.13-.59.64-.28 1.38.83 2.63-.13a1.42 1.42 0 0 0-.39-2.47c-5.14-1.82-14.64 5.07-19.41 7.41-2.22 1.09-4.38 3.03-7.1 3.8 8.2-5.98 17.54-10.27 25.78-15.09q5.42-3.18 11.01-6.05c2.21-1.14 3.89-2.91 6.08-3.83q4.76-2 9.42-4.37a.32.32 0 0 0-.07-.6q-.6-.16-1.13.08-17.21 7.48-33.93 16.02c-.93.48-1.38.42-2.35.15q-.56-.16-.49.41c.26 2.09-8.52 5.51-10.47 6.15q-6.68 2.22-12.5 6.27-.45.31-.61-.21c-.27-.85 8.66-5.77 9.68-7.38q.66-1.05-.41-.43-2.23 1.3-4.61.47-.52-.18-1.01.06-5.41 2.61-10.38 6.02-.21.14-.33-.08l-.13-.25q-.05-.1.04-.16c17.77-12.33 36.57-21.8 53.15-31.02 1.71-.95 4.33-1.66 6.26-3.07q.48-.35.12-.82c-.58-.77-3.94 1.36-4.7 1.76q-.46.25-.43-.27.01-.15.01-.29 0-.14.13-.22c1.98-1.14 12.75-6.69 13.26-8.04a.53.53 0 0 0-.71-.68l-22.43 10.05a1.81 1.81 0 0 1-1.78-.17c-2-1.41-3.85.53-5.71.62a.4.4 0 0 1-.17-.77c5.66-2.28 10.03-5.22 15.11-8.24 2.79-1.67 7.34-3.01 10.52-5.42q2.41-1.82 4.35-2.62 6.28-2.57 12.29-5.74.49-.26.25-.76l-.15-.29q-.27-.56.29-.84 19-9.52 29.95-14.15 63.73-26.93 115-43.98c42.78-14.22 79.18-22.67 120.03-29.58q19.61-3.32 36.95-4.51c8.93-.61 17.15-1.57 25.46-1.7 3.17-.05 30.88-1.35 31.49-.65a.57.57 0 0 1-.38.94l-14.71 1.33a.53.52 49.7 0 0-.08 1.03q9.85 2.63 19.96 3.03c3.41.13 6.59 2.67 9.38 4.39a.82.82 0 0 1-.41 1.52l-7.82.16q-.33.01-.32.33v.27q0 .59.57.46.39-.09.6.15.27.3-.13.32l-10.94.31q-2.91.09-.1.84c2.34.62 16.95 3.39 17.44 4.51q.3.68-.44.67c-3.07-.06-5.47-.94-8.47.03-3.56 1.15-6.99 2.09-10.51 3.37q-2.51.91-5.28.42-.51-.09-.67.41-.04.15-.08.29-.12.38.28.46c6.78 1.34 13.59 1.46 20.45 2.31a.81.79-6.6 0 1 .65.5c.66 1.74-.02 2.9-1.92 2.9-5.33.01-11.32-.49-16.53.52q-2.39.47-4.79.91a.39.39 0 0 0 .03.78q3.53.38 7.1.89c1.67.23 4.2-.2 6.2 1.04q.75.47-.05.86-1.53.73-2.34 2.23-.23.42-.68.6-5.27 2.13-10.91 2.31-.37.01-.42.38l-.05.34q-.05.38.33.38l3.66.08q.97.02.42.81c-1.6 2.27-6.29 2.14-6.34 2.27q-.18.45.27.64c7.89 3.21 17.43 0 25.72.24q.77.03.26.6-1.86 2.09-5.01 1.76c-6.15-.65-16.45 1.11-22.26 1.61q-5.37.45-10.86.96a.4.4 0 0 0-.02.8q13.24 1.86 26.93.99c.94-.06 2.69-.75 4.01-.39q1.6.43-.05.58-3.03.28-4.98 2.53-.38.44-.94.47c-1.1.06-7.94-.17-8.14.53q-.12.41.3.45l9.41.9a.66.66 0 0 1-.12 1.31l-11.4-.88q-.33-.03-.53.24l-.16.23q-.39.53.17.87c4.32 2.66 9.6.32 14.34 2.66 4.65 2.3 8.87 2.18 13.43 2.98a.45.44 45.2 0 1 0 .88l-14.09 2.32q-.46.08-.69.49l-.72 1.28q-.39.7.41.77c1.76.17 10.77-1.51 11.36.22q.18.53-.37.58l-4.45.36q-.53.04-.83.47l-.54.75q-.33.45-.89.37-9.25-1.33-18.6-.51a.47.46 50.8 0 0-.09.91c1.65.49 9.22.17 9.24.2q.29.29.08.65l-.51.86q-.42.72.36.99 4.61 1.57 9.46 1.17a.66.66 0 0 1 .72.71l-.05.67q-.05.65.6.65h4.14q.78 0 .45.71-.82 1.82-2.44 2.08-8.62 1.37-14.73 3.44-1.59.54.08.74l9.85 1.16q1.33.16.01.39-6.3 1.09-12.62.8c-1.08-.05-9.52.17-9.53 1.24q0 .49.48.46 5.79-.26 11.4 1.12.57.14.44.71c-.26 1.16-2.38.91-3.17 1.31q-.99.5.1.69l8.69 1.49q.38.07.36.46c-.04.94-7.17.15-8.45.26a.84.84 0 0 0-.46 1.49c4.06 3.33 15.47.86 20.94 1.77a.29.29 0 0 1 .01.57c-11.14 2.19-23.53 1.8-35.17 6.27a.46.45-58 0 0 .2.88c3.69-.32 7.29.88 10.44 1.13q4.13.31 8.2 1.02 2.32.41-.03.46-5.94.14-11.83.35c-3.28.11-5.59-.13-8.9.9a.56.56 0 0 0 .16 1.1h5.23a1.11 1.11 0 0 1 .7 1.97q-2.65 2.13-6.05 2.07a.4.39-23.8 0 0-.27.69l.79.68q.54.47-.03.89-1.33.97-3.09.64-.39-.07-.59.27l-.14.23a.44.44 0 0 0 .38.66l14.44-.11q.62-.01.59.61c-.04.75-22.04.46-21.76 2.83q.04.37.42.38l16.19.27a.35.35 0 0 1 .17.65q-2.44 1.4-5.26 1.36-5.27-.07-.27.77 1.89.32 3.78.14.45-.04.51.41l.04.28q.08.54-.46.47l-6.24-.86q-.63-.09-.49.54c.32 1.43 4.92 1.29 6.06 1.21q.54-.04 1.02.2 3.71 1.83 7.85 1.79a.82.81-84.3 0 1 .8.99c-.48 2.26-8.02-.4-8.09 2.88q0 .41.4.38l6.07-.4a.48.48 0 0 1 .2.93c-3.64 1.38-7.35.47-10.31 1.86a.77.77 0 0 0 .16 1.45l8.95 1.97a.64.64 0 0 1 .07 1.23c-1.72.59-8.79 1.81-9.19 2.93q-.22.6.42.68l2.75.34q.31.04.24.34c-.18.75-7.74.29-8.76.21q-.38-.03-.64.24l-.2.2q-.43.43.16.55l3.84.75q.91.18.76 1.1-.48 2.82-3.36 2.26-2.26-.44-.18.97c.72.48 2.48.09 3.52.39 2.97.85 7.61-.03 9.7.83q.57.23 0 .47c-2.92 1.22-9.2.36-12.92 1.11-6.3 1.26-10.57 1.64-16.05 2.23-4.6.51-11.74.57-17.59 1.76q-29.44 6.04-43.91 10.44c-12.4 3.77-24.74 8.01-37.37 10.9q-4.31.99-8.23 3.06c-4.57 2.4-10.04 3.03-13.96 4.87q-6.37 2.98-13.15 5.97a.32.32 0 0 1-.36-.51c2.84-3.1 9-5.46 13.13-6.99q4.43-1.64 8.74-3.78a.31.31 0 0 0-.07-.58q-.46-.1-.78.01-13.16 4.64-26.26 9.48-.52.19-1.98-.19-.57-.15-1.12.07l-18.07 7.19q-.43.17-.3-.27c.35-1.22 36.19-15.45 40.12-16.97 1.59-.62 8.03-3.05 8.44-4.66a.54.54 0 0 0-.67-.65c-8.47 2.55-16.7 5.07-24.99 8.5-26.01 10.74-45.86 19.28-69.71 31.71-1.15.6-1.92.43-2.9-.28q-.48-.36-.13-.84.67-.92 1.85-.94.58-.01.72-.57c.25-.98.57-.42 1.01-.56q3.12-1.06 5.56-3.19 1.51-1.33-.32-.5-18.52 8.4-34.99 20.3a.2.2 0 0 1-.27-.3c3.56-4.17 8.98-7.36 12.22-9.94 1.76-1.41 9.56-5.55 7.39-8.22q-.38-.48-.93-.19l-26.1 13.82q-2.08 1.1-.26-.38 11.51-9.34 25.69-16.95 2.08-1.12 5.11-3.57 4.75-3.84 10.83-5.38 1.9-.48 2.91-1.89a.33.33 0 0 0-.39-.5l-8.34 3.13q-.56.21-.5-.38c.09-.88 6.23-2.41 6.11-4.6q-.05-.86-.82-.46l-6.98 3.64q-.63.33-.43-.36.09-.3.29-.58.25-.35.68-.35h.82q1.67 0 .32-.99l-.31-.23q-.54-.4-.86.19-.52.96-1.73.95-.48-.01-.9.21l-12.13 6.33q-.64.34-.58-.38c.06-.85 29.63-15.81 33.21-18.02q.42-.26.29-.74c-.28-1.02-3.2.6-4.45.38q-.7-.13-.18-.61c2.04-1.92 4.72-2.07 6.81-3.34q2.45-1.48 5.08-2.58.52-.22.76-.72l.75-1.51q.21-.41.66-.47l5.57-.77q.54-.07.88-.48c1.24-1.51 2.86-1.47 4.24-2.13q4.34-2.09 8.43-4.64.88-.55-.15-.69l-.47-.06q-90.1-12.1.22-.7.88.11 1.21-.44.34-.57-.27-.81c-2.24-.91-11.64 3.8-14.25 4.9q-2.21.93-7.73 2.53c-3.93 1.13-8.22 4.52-12.24 4.49-4.19-.04-7.08 2.99-10.98 4.02q-.8.21-.47-.55c.37-.83 3.57-2.14 4.48-2.56q.5-.24.17-.69l-.15-.21q-.27-.37-.68-.16c-3.25 1.67-6.62 1.64-9.61 3.11q-7.78 3.84-15.41 7.97-.31.17-.52-.12-.11-.14-.2-.22-.24-.18 0-.36c2.95-2.17 5.97-3.38 8.71-5.83q.55-.5-.05-.94-1.03-.78-2.22-.17-.41.22-.49-.24c-.18-1.1 12.19-6.37 11.62-7.63a.6.6 0 0 0-.8-.3c-2.27 1.1-26.83 13.5-27.21 12.7q-.01-.02.14-.15l1.84-1.61q.58-.52-.15-.79c-2.53-.92-6.51 3.06-7.26 2.47q-.37-.3.02-.57c10.52-7.32 22.54-13.33 33.48-19.51q.39-.22.49-.65c.14-.64 4.43-3.27 5.15-3.91a.38.38 0 0 0-.42-.62q-7.42 3.78-15.43 6.04a.48.47 21.3 0 1-.38-.86q2.48-1.48 4.66-3.27c1.35-1.11 3.16-1.53 4.68-2.42q.28-.16.24-.48l-.04-.29q-.05-.35-.38-.21c-2.79 1.24-5.09 2.48-8.21 3.3-4.61 1.2-8.03 3.67-13.19 5.4-5.88 1.98-11.14 4.91-17.22 6.63-.8.23-1.35.82-1.96 1.33q-.48.4-.5-.22c-.04-2.12 57.09-24.95 63.05-27.3 5.99-2.37 12.16-5.94 17.96-8.88 4.94-2.51 10.93-4.27 16.04-6.14q.44-.15.46-.61.01-.13-.03-.25-.09-.3-.39-.2-8.04 2.75-16.11 5.4c-9.26 3.04-24.21 7.12-36.06 12.03-43.83 18.15-74.95 31.26-112.75 51q-.04.02-5.52 3.2-3.23 1.88-6.88 3.24-3.06 1.13-.23-.49l7.82-4.49a.53.53 0 0 0-.34-.98q-4.29.67-7.74 3.21-.59.43-.54-.3.02-.24 0-.41-.02-.37.3-.55l26.4-14.24q1.13-.6-.15-.63-1.41-.04-3.22.87c-22.39 11.23-45.44 22.97-64.42 38.67-.24.21-.44.4-.69.09q-.17-.21.02-.39l16.81-15.22q.32-.29.75-.36c4.64-.77 5.34-4.29 8.35-6.17q4.65-2.92 9.13-6.06c1.69-1.18 2.06-2.82 3.24-4.44q.33-.44.02-.9l-.61-.9q-.36-.54-.94-.24c-16.67 8.58-33.83 16.75-49.48 27.09zm398.36-167.93q.25-.35.09-.76-.25-.63-.75-.17-.59.54.13 1.03.31.2.53-.1zm14.39 21.87-3.54.07q-2.42.05-.06.58 2.25.51 3.77.05 2.48-.76-.17-.7zm-271.68 42.3q-2.47.25-4.25 1.8-1.39 1.22.37.65 2.18-.7 4.08-1.82 1.33-.78-.2-.63zm-105.892 17.203a.45.45 0 0 0-.614-.167l-4.565 2.614a.45.45 0 0 0-.167.615l.03.052a.45.45 0 0 0 .614.167l4.565-2.614a.45.45 0 0 0 .167-.615l-.03-.052zM496.4 230a.49.49 0 0 0 .1.95l2.17.3q1.27.18.32-.69-1.18-1.09-2.59-.56zm-361.76 1.87.12-.57a.31.31 0 0 0-.4-.36l-1.06.35a.49.49 0 0 0 .15.96h.71q.4 0 .48-.38zm-31.13 3.39.53-.07q.52-.08.75.4l.48.97q.29.59.92.4 2.25-.65 3.28-2.64.2-.37.11-.79l-.27-1.28q-.16-.8-.89-.43l-5.87 2.95q-.66.33-.16.87c.22.24.76.2.88-.18q.06-.18.24-.2zm27.847-2.054a.64.51 105.7 0 0 .664-.478.64.51 105.7 0 0-.318-.754.64.51 105.7 0 0-.664.478.64.51 105.7 0 0 .318.754zm2.713 1.104.58-.59a.31.3-78 0 0-.32-.5q-1.06.43-1.1 1.51-.01.27.26.27h.26q.25 0 .25-.25v-.27q0-.1.07-.17zm56.879.12a3.74.67-24.3 0 0-3.685.93 3.74.67-24.3 0 0-3.133 2.15 3.74.67-24.3 0 0 3.685-.93 3.74.67-24.3 0 0 3.133-2.15zm-15.338 16.836a1.34.77-33.2 0 0-1.543.09 1.34.77-33.2 0 0-.7 1.378 1.34.77-33.2 0 0 1.544-.09 1.34.77-33.2 0 0 .7-1.378zm-8.151 4.074q1.12.09 1.43-.97.33-1.11-.69-.57l-4.04 2.11q-1.47.78.19.78 1.41 0 2.31-1.02.31-.37.8-.33zm11.28-.21q-.3.56.33.54 1.43-.05 2.64-.85.78-.52-.13-.76-1.96-.53-2.84 1.07zm196.8 11.89c-.44-.1-1.15-.1-1.29.48q-.16.66.51.51l.77-.17a.42.42 0 0 0 .01-.82zm-222.75 2.96q2.13-1.68-.58-.57-.24.1-.06.28l.26.26q.18.19.38.03zm215.48-.48q-.04.19-.03.4a.5.5 0 0 0 .82.36l.58-.51a.44.44 0 0 0-.34-.77l-.58.08q-.38.06-.45.44zm-124.33 3.91a.5.49 47.1 0 0 .03-.9q-1.53-.76-2.53.74a.61.61 0 0 0 .74.9l1.76-.74zm-107.7 4.95q.04.31-.18.45-1.04.67.26.4 1.61-.33 2.61-1.62.34-.44.88-.55 2.24-.46 3.72-2.17a.34.34 0 0 0-.41-.52l-6.54 3.35q-.41.21-.34.66zm39.53-2.41q-1.34.16-2.33.94-.37.29-.82.37-.95.17-1.44 1.02-.37.64.37.53 2.57-.37 4.53-2.2.86-.8-.31-.66zm-26.68 3.58c.67-.31 3.78-1.43 3.64-2.25q-.1-.62-.66-.34l-5.68 2.87a.62.61 34.4 0 0 .22 1.16q1.08.1 1.74-.84.29-.4.74-.6zm-10.48 5.52q.82.69 1.89-.9.34-.51-.23-.72-.42-.15-1.67.96-.38.33.01.66zm141.72 5q1.73-.12 2.63-1.44.79-1.16-.44-.5l-2.38 1.26q-1.48.79.19.68zm-128.3 1.72q1.18.14 1.98-1.47a.22.22 0 0 0-.35-.26q-.81.73-1.72 1.17-.91.44.09.56zM413.9 96.04q.21-.07.58.02a.37.37 0 0 1 .04.7l-.8.3a.4.39 12.4 0 1-.42-.65l.18-.18q.07-.07.42-.19zM382.07 106.58c-2.24.35-13.35 3.99-14.55 3.33q-.73-.41.08-.61c3.58-.9 7.14-2.06 10.63-2.83q21.98-4.84 44.09-9.02.54-.11.38.42c-.44 1.42-37.08 8.15-40.63 8.71zM337.31 118.52c-2.61.67-5.67 1.94-8.6 2.64q-.49.12-.47-.39.01-.15.01-.29 0-.15.15-.2 14.5-4.29 29.12-8.21.62-.16 1.22-.05.79.15.05.45c-6.64 2.65-14.51 4.28-21.48 6.05zM322.89 122.04q.27-.15.53-.06.38.14.19.49-.4.72-1.24.49-.46-.12-.19-.51.12-.18.32-.2.02 0 .39-.21zM319.52 123.1l.87-.12q.48-.07.39.41c-.15.78-1.08.82-1.49.26a.35.34 68.2 0 1 .23-.55z"/><path fill="#D51313" d="M526.66 151.68q-.49.67-1.3-.21-.48-.53.23-.47l.78.05q.71.06.29.63zM161.5 188.89q-.14-.14-.16-.42a.36.35 68.8 0 1 .14-.32q.42-.32 1-.06.52.23.03.52l-.56.33q-.25.15-.45-.05zM83.75 231.14a.16.16 0 0 1 .06-.22l23.06-12.26a17.65.74-28 0 1 15.93-7.63 17.65.74-28 0 1-15.24 8.94l-23.05 12.26a.16.16 0 0 1-.22-.07l-.54-1.02zM122 215.05q-1.35.65-.28-.4 2.07-2.05 5.04-2.52 1.78-.28.16.51l-4.92 2.41zM163.03 234.06a.21.21 0 0 1-.23-.35q1.47-1.21 3.71-1.72.97-.23.09.23l-3.57 1.84zM161.89 234.83q-2.32 1.12-4.75 2.12-1.43.59-.18-.32 2.13-1.55 4.55-2.61a.45.45 0 0 1 .38.81zM144.47 235.12q.56-.29.99-.01a.41.41 0 0 1-.22.75h-.6a.39.39 0 0 1-.17-.74zM135.25 242.5c.14-.58.85-.58 1.29-.48a.42.42 0 0 1-.01.82l-.77.17q-.67.15-.51-.51zM103.5 246q-1.5 1.71-3.62 2.56-.86.34-.32-.41 1.35-1.88 3.94-2.15zM127.5 255q1.21-1.68 3.29-2.23 1.28-.35.02-.75-.14-.04-.27-.09-.5-.18-.19-.61 1.18-1.62 3.1-2.18 1.08-.31.38.57-.86 1.09-2.29 1.4-.69.14-.27.71l.31.42q.34.46-.11.82-1.8 1.43-3.97 1.94zM104.06 253.31q-.15.37-.59.39-.59.02-.24-.46.64-.9 1.7-1.24.72-.23.28.38-.45.64-1.15.93zM127.5 255q-1.02 1.75-3 2 1.03-1.71 3-2zM124.5 257q-1.99 2.35-5 3 2.01-2.31 5-3zM132.65 258.68q-.56.66-1.11.25-.52-.39.01-.74.54-.37 1.03-.05.34.22.07.54zM248.15 260.5q.99-.66 2.03-1.07 2.63-1.04.42.67-1.02.78-2.27.91-1.11.12-.18-.51zM119.5 260q-.88 1.45-2.41 1.95-.7.22-.23-.34 1.05-1.24 2.64-1.61z"/><rect fill="#D51313" x="-5.98" y="-.42" transform="rotate(-27.6 658.336 -360.857)" width="11.96" height=".84" rx=".41"/><path fill="#D51313" d="M113.08 264.03a.01.01 0 0 1 .02.01l.02.04a3 1.08-31.8 0 1-1.98 2.5l-.44.27a3 1.08-31.8 0 1-3.12.66l-.03-.04a.01.01 0 0 1 .01-.01l5.52-3.43zM85.46 266.89q-.4.26-1.03-.04a.44.44 0 0 1-.02-.78c.75-.4 2.01.57 1.28.72q-.12.03-.23.1z"/><ellipse fill="#D51313" transform="rotate(-28.5 645.86 -324.782)" rx="3.67" ry=".51"/><path fill="#D51313" d="M248.77 276a.18.18 0 0 1-.19-.04l-.18-.19q-.35-.35.1-.55l2.58-1.13q.3-.13.5.14l.15.2q.18.25-.1.37l-2.86 1.2zM263.52 277.81a.13.13 0 0 1-.18-.05l-.01-.03a3.24 1.12-27 0 1 2.38-2.47l.28-.14a3.24 1.12-27 0 1 3.4-.48l.01.03a.13.13 0 0 1-.06.18l-5.82 2.96zM113.24 278.13q-.45.65-1.18.88-.75.25-.28-.38.81-1.09 2.09-1.53.4-.13.3.27-.07.32-.42.41-.32.09-.51.35z"/><ellipse fill="#D51313" transform="rotate(135 61.818 197.241)" rx=".97" ry=".48"/><path fill="#D51313" d="m87.5 312-4.24 3.76q-.34.3-.74.1-.16-.08-.22-.2-.05-.09.03-.15l4.04-3.24q.34-.27.78-.27h.35z"/></svg>